<?xml version="1.0" standalone="no"?>
<!DOCTYPE svg PUBLIC "-//W3C//DTD SVG 20010904//EN"
 "http://www.w3.org/TR/2001/REC-SVG-20010904/DTD/svg10.dtd">
<svg version="1.0" xmlns="http://www.w3.org/2000/svg"
 width="64.000000pt" height="64.000000pt" viewBox="0 0 64.000000 64.000000"
 preserveAspectRatio="xMidYMid meet">
<metadata>
Created by potrace 1.16, written by Peter Selinger 2001-2019
</metadata>
<g transform="translate(0.000000,64.000000) scale(0.100000,-0.100000)"
fill="#000000" stroke="none">
<path d="M253 597 c3 -7 -3 -13 -14 -14 -19 -2 -70 -43 -53 -43 5 0 1 -5 -8
-11 -12 -6 -18 -22 -18 -43 0 -21 -6 -36 -15 -40 -9 -3 -15 -18 -15 -35 0 -23
-5 -30 -22 -33 -12 -2 -22 -11 -24 -23 -2 -11 -8 -21 -13 -23 -6 -2 -11 -14
-11 -27 0 -12 -7 -25 -15 -29 -21 -8 -22 -141 -1 -149 8 -3 16 -16 18 -29 2
-15 11 -24 25 -26 13 -2 23 -8 23 -13 0 -5 34 -9 75 -9 43 0 75 4 75 10 0 13
37 13 45 0 8 -13 185 -13 185 0 0 6 11 10 25 10 16 0 25 6 25 15 0 8 7 15 15
15 8 0 15 7 15 15 0 8 5 15 10 15 6 0 10 30 10 70 0 40 -4 70 -10 70 -5 0 -10
7 -10 15 0 8 -7 15 -15 15 -8 0 -15 5 -15 11 0 14 -25 39 -39 39 -7 0 -11 22
-11 54 0 35 -5 58 -15 66 -8 7 -15 23 -15 36 0 13 -4 24 -10 24 -5 0 -10 7
-10 15 0 8 -5 15 -10 15 -6 0 -23 11 -38 25 -22 21 -37 25 -85 25 -44 0 -58
-3 -54 -13z"/>
</g>
</svg>
